HIERARCHY
ROOT hip
{
	OFFSET 0.000000 0.000000 0.000000 
	CHANNELS 6 Xposition Yposition Zposition Xrotation Zrotation Yrotation
	JOINT abdomen
	{
		OFFSET 0.000000 3.402643 0.000000 
		CHANNELS 3 Xrotation Zrotation Yrotation
		JOINT chest
		{
			OFFSET 0.000000 8.438565 -0.680529 
			CHANNELS 3 Xrotation Zrotation Yrotation
			JOINT neck
			{
				OFFSET 0.000000 10.207942 -0.272212 
				CHANNELS 3 Xrotation Zrotation Yrotation
				JOINT head
				{
					OFFSET 0.000000 3.130431 0.000000 
					CHANNELS 3 Xrotation Zrotation Yrotation
					End Site
					{
						OFFSET 0.000000 3.130435 0.000000 
					}
				}
			}
			JOINT lCollar
			{
				OFFSET 3.470700 6.669187 -0.816635 
				CHANNELS 3 Yrotation Zrotation Xrotation
				JOINT lShldr
				{
					OFFSET 3.198488 0.000000 0.000000 
					CHANNELS 3 Zrotation Yrotation Xrotation
					JOINT lForeArm
					{
						OFFSET 10.139888 0.000000 0.000000 
						CHANNELS 3 Yrotation Zrotation Xrotation
						JOINT lHand
						{
							OFFSET 8.370511 0.000000 0.000000 
							CHANNELS 3 Zrotation Yrotation Xrotation
							End Site
							{
								OFFSET 4.083176 0.000000 0.000000 
							}
						}
					}
				}
			}
			JOINT rCollar
			{
				OFFSET -3.470700 6.669187 -0.816635 
				CHANNELS 3 Yrotation Zrotation Xrotation
				JOINT rShldr
				{
					OFFSET -3.198488 0.000000 0.000000 
					CHANNELS 3 Zrotation Yrotation Xrotation
					JOINT rForeArm
					{
						OFFSET -10.139888 0.000000 0.000000 
						CHANNELS 3 Yrotation Zrotation Xrotation
						JOINT rHand
						{
							OFFSET -8.370511 0.000000 0.000000 
							CHANNELS 3 Zrotation Yrotation Xrotation
							End Site
							{
								OFFSET -4.083176 0.000000 0.000000 
							}
						}
					}
				}
			}
		}
	}
	JOINT lThigh
	{
		OFFSET 5.308129 -1.633274 1.361059 
		CHANNELS 3 Xrotation Zrotation Yrotation
		JOINT lShin
		{
			OFFSET -2.041588 -20.007561 0.000000 
			CHANNELS 3 Xrotation Zrotation Yrotation
			JOINT lFoot
			{
				OFFSET 0.000000 -19.190928 -1.224953 
				CHANNELS 3 Xrotation Yrotation Zrotation
				End Site
				{
					OFFSET 0.000000 -2.449906 4.627600 
				}
			}
		}
	}
	JOINT rThigh
	{
		OFFSET -5.308129 -1.633274 1.361059 
		CHANNELS 3 Xrotation Zrotation Yrotation
		JOINT rShin
		{
			OFFSET 2.041588 -20.007561 0.000000 
			CHANNELS 3 Xrotation Zrotation Yrotation
			JOINT rFoot
			{
				OFFSET 0.000000 -19.190928 -1.224953 
				CHANNELS 3 Xrotation Yrotation Zrotation
				End Site
				{
					OFFSET 0.000000 -2.449906 4.627600 
				}
			}
		}
	}
}
MOTION
Frames: 11
Frame Time: 0.016667
-0.928409 44.711681 -0.841712 11.272000 -3.553340 -7.221860 -31.544001 1.423250 -1.064710 4.027460 -1.488600 -0.271331 8.616820 7.491420 -16.651400 10.821400 6.609410 -7.824170 2.000000 -2.000000 0.000000 -62.697102 -15.957300 -140.117004 94.590401 -0.203126 0.155821 -179.897003 -179.876007 -7.556440 -2.000000 2.000000 0.000000 8.746230 49.891102 113.417000 -110.078003 0.171265 0.109480 -0.054546 -0.006889 -134.460999 -3.838530 3.147159 -40.154953 0.315080 4.156281 -0.114559 -24.791744 49.010609 19.911877 -8.938529 5.367192 26.092344 0.480705 -0.886851 -0.360529 -3.607463 -22.974176 -3.076380 
-0.921585 44.708469 -0.825108 11.477400 -3.550780 -7.410340 -31.398800 1.528850 -0.539660 4.454800 -1.792110 0.028696 7.814930 7.984590 -17.678600 10.628000 6.816170 -8.291980 2.000000 -2.000000 0.000000 -62.931099 -17.791700 -139.283005 94.473198 -0.203425 0.155845 0.104529 -0.125024 171.886993 -2.000000 2.000000 0.000000 6.793580 51.009300 107.474998 -109.130997 0.173242 0.110184 -0.055074 -0.014719 -131.658005 -3.450947 3.203528 -41.286644 -0.027926 4.187814 -0.124225 -27.905592 49.318298 22.589533 -9.079045 5.446614 26.461554 0.419287 -0.937099 -0.332239 -3.478868 -23.242867 -2.964027 
-0.915960 44.708210 -0.807876 11.575400 -3.559120 -7.623420 -30.999701 1.682970 -0.271467 5.432200 -1.753530 0.180665 6.997020 8.077860 -18.422400 10.403500 6.926420 -8.629050 2.000000 -2.000000 0.000000 -63.498299 -19.783300 -138.966995 93.936096 -0.204794 0.155946 0.106050 -0.126231 171.194000 -2.000000 2.000000 0.000000 6.048800 51.959000 103.786003 -107.569000 0.176528 0.111274 -0.056035 -0.022865 -128.727997 -3.208940 3.246368 -42.243069 -0.210890 4.202201 -0.134213 -30.399553 49.592182 24.819004 -9.022349 5.392424 26.860857 0.072459 -0.814335 -0.325281 -3.310800 -23.435743 -2.968829 
-0.904990 44.702942 -0.793188 11.576000 -3.606950 -7.828520 -31.174801 1.763880 0.111000 5.176430 -1.949150 0.399012 6.867730 7.971360 -18.959801 10.266200 6.957650 -8.945110 2.000000 -2.000000 0.000000 -64.268799 -20.582500 -138.048004 93.291603 -0.206439 0.156050 0.107911 -0.127669 170.354004 -2.000000 2.000000 0.000000 8.521930 51.968399 104.431000 -104.492996 0.183078 0.113156 -0.058071 -0.024373 -124.637001 -2.996452 3.303852 -42.804710 -0.298627 4.196989 -0.133996 -32.116413 49.698540 26.375172 -9.039053 5.558423 27.066698 0.226381 -0.937980 -0.289242 -3.272988 -23.434198 -2.811206 
-0.891012 44.687248 -0.777297 11.488900 -3.684640 -8.160790 -30.883400 1.922120 0.227677 5.960000 -1.729460 0.459866 6.713740 8.700190 -19.406700 10.331300 7.335300 -9.160200 2.000000 -2.000000 0.000000 -65.128899 -21.744400 -137.968002 92.510300 -0.208433 0.156151 0.110476 -0.129581 169.210999 -2.000000 2.000000 0.000000 11.126900 52.025700 106.362000 -99.267998 0.194403 0.115538 -0.059992 -0.032236 -121.746002 -2.625566 3.390698 -43.246849 -0.416984 4.216336 -0.143951 -34.245235 49.583138 28.216372 -8.933656 5.630608 27.009869 0.167207 -0.930133 -0.300929 -3.132072 -23.031008 -2.711455 
-0.878060 44.661274 -0.750891 11.334000 -3.811150 -8.585810 -31.077499 2.003680 0.530291 5.725140 -1.774810 0.625908 7.790530 9.076050 -19.532801 10.697200 7.426300 -9.306660 2.000000 -2.000000 0.000000 -65.938499 -21.938601 -137.294006 91.768204 -0.210330 0.156222 0.113191 -0.131520 168.020004 -2.000000 2.000000 0.000000 15.508900 51.152699 111.387001 -91.377403 0.211797 0.117157 -0.060496 -0.034054 -121.071999 -2.109611 3.547867 -43.646912 -0.559154 4.209637 -0.163513 -36.921921 49.149479 30.496763 -8.794714 5.845652 26.835407 0.286808 -1.022622 -0.256767 -3.038497 -22.457487 -2.523188 
-0.870952 44.632336 -0.714797 11.090500 -3.900610 -9.016140 -30.697399 2.106050 0.605808 6.684620 -1.497990 0.662733 8.630100 8.909410 -19.422199 10.960800 7.295660 -9.307330 2.000000 -2.000000 0.000000 -66.593201 -22.973400 -137.097000 90.840401 -0.212701 0.156277 0.115174 -0.142649 167.160004 -2.000000 2.000000 0.000000 17.385700 50.358200 115.143997 -80.313004 0.237854 0.134775 -0.060304 -0.033370 -121.325996 -1.485088 3.635644 -44.041893 -0.692213 4.209587 -0.182468 -39.362980 48.769485 32.600311 -8.593998 6.060329 26.767090 0.519416 -1.147618 -0.287443 -3.047542 -21.942240 -2.358949 
-0.878840 44.607128 -0.672729 10.767200 -3.885660 -9.420250 -30.986300 2.063420 0.934734 6.244640 -1.551880 0.825403 9.722890 8.015330 -19.211700 11.022100 6.858290 -9.333480 2.000000 -2.000000 0.000000 -67.030502 -22.893200 -135.899002 89.990700 -0.214871 0.136762 0.115923 -0.143153 166.837997 -2.000000 2.000000 0.000000 18.787100 48.691799 120.695999 -66.680199 0.268970 0.125554 -0.058077 -0.024400 -124.626999 -0.784041 3.595973 -44.294960 -0.833667 4.224048 -0.173231 -40.733879 48.774506 33.921413 -8.184553 5.971965 26.805124 0.384008 -1.023847 -0.302804 -3.054065 -21.480492 -2.415663 
-0.898654 44.586166 -0.625063 10.365200 -3.833090 -9.782960 -31.043501 1.992200 0.964414 6.265790 -1.296500 0.818419 10.780100 8.073350 -18.884399 11.277800 6.853980 -9.264110 2.000000 -2.000000 0.000000 -67.195099 -22.784599 -135.205994 89.277901 -0.216572 0.136751 0.116333 -0.143426 166.662003 -2.000000 2.000000 0.000000 17.620600 47.961800 126.305000 -52.324699 0.298409 0.108214 -0.054985 -0.013711 -132.018997 -0.090579 3.487297 -44.235863 -0.937734 4.222260 -0.183098 -41.670513 48.636723 34.790325 -7.805346 5.995402 26.757931 0.578831 -1.098052 -0.305947 -3.193036 -21.039743 -2.360696 
-0.920591 44.572922 -0.577593 9.924160 -3.780630 -10.016900 -30.974701 1.886540 0.873135 6.491940 -1.004130 0.739791 11.696100 8.121090 -18.422600 11.504400 6.869410 -9.106670 2.000000 -2.000000 0.000000 -67.077202 -22.696100 -134.845001 88.897003 -0.217481 0.136736 0.117269 -0.144043 166.261993 -2.000000 2.000000 0.000000 15.625300 47.679001 132.529999 -40.312901 0.319098 0.088454 -0.055613 0.019695 -143.973007 0.535824 3.348318 -43.949688 -0.948133 4.229965 -0.183243 -42.436844 48.131798 35.310009 -7.414214 6.040593 26.507500 0.891355 -1.262495 -0.314915 -3.362936 -20.525368 -2.261189 
-0.951131 44.574459 -0.535783 9.493770 -3.804740 -10.089400 -30.669800 1.743990 0.899674 7.039240 -0.921030 0.729189 12.076900 7.369030 -18.240299 11.488300 6.511330 -9.028680 2.000000 -2.000000 0.000000 -66.647400 -23.174101 -134.542007 88.838402 -0.217621 0.136734 0.119039 -0.135418 165.509995 -2.000000 2.000000 0.000000 13.946800 47.740101 136.834000 -31.328501 0.331632 0.071088 -0.067487 0.063465 -160.222000 1.044507 3.295682 -43.547188 -0.924625 4.235119 -0.182977 -42.436428 47.835171 35.154224 -6.978724 6.052071 26.166660 1.003706 -1.276493 -0.311630 -3.518846 -20.124714 -2.278392 
